<svg width="10" height="18" viewBox="0 0 10 18" fill="none" xmlns="http://www.w3.org/2000/svg">
<path d="M3.67499 18C3.49166 18 3.34166 17.9333 3.22499 17.8C3.10833 17.6667 3.06666 17.5083 3.09999 17.325L3.99999 11H0.499993C0.249993 11 0.0956596 10.9333 0.036993 10.8C-0.021007 10.6667 0.0166595 10.4833 0.149993 10.25L5.84999 0.275C5.88333 0.191667 5.94999 0.125 6.04999 0.075C6.14999 0.025 6.24166 0 6.32499 0C6.50833 0 6.65833 0.0666667 6.77499 0.2C6.89166 0.333333 6.93333 0.491667 6.89999 0.675L5.99999 7H9.49999C9.74999 7 9.90399 7.06667 9.96199 7.2C10.0207 7.33333 9.98333 7.51667 9.84999 7.75L4.14999 17.725C4.11666 17.8083 4.04999 17.875 3.94999 17.925C3.84999 17.975 3.75833 18 3.67499 18Z" fill="#FF3841"/>
</svg>
